<?xml version="1.0" encoding="UTF-8" standalone="no"?>
<svg
   height="25.000013"
   viewBox="0 0 7.4083332 6.614587"
   width="28"
   version="1.1"
   id="svg22"
   sodipodi:docname="logo.svg"
   inkscape:version="1.2.2 (b0a8486541, 2022-12-01)"
   xmlns:inkscape="http://www.inkscape.org/namespaces/inkscape"
   xmlns:sodipodi="http://sodipodi.sourceforge.net/DTD/sodipodi-0.dtd"
   xmlns="http://www.w3.org/2000/svg"
   xmlns:svg="http://www.w3.org/2000/svg">
  <defs
     id="defs26" />
  <sodipodi:namedview
     id="namedview24"
     pagecolor="#ffffff"
     bordercolor="#666666"
     borderopacity="1.0"
     inkscape:showpageshadow="2"
     inkscape:pageopacity="0.0"
     inkscape:pagecheckerboard="0"
     inkscape:deskcolor="#d1d1d1"
     showgrid="false"
     inkscape:zoom="7.2751709"
     inkscape:cx="15.11992"
     inkscape:cy="41.78596"
     inkscape:window-width="1920"
     inkscape:window-height="1014"
     inkscape:window-x="0"
     inkscape:window-y="0"
     inkscape:window-maximized="1"
     inkscape:current-layer="svg22" />
  <g
     transform="translate(0.52916634,-290.51768)"
     id="g20">
    <path
       d="M 1.0583334,290.78227 H 1.5875 v 1.85208 H 1.0583334 Z"
       fill="#83beec"
       fill-opacity="0.978947"
       stroke-width="1.67332"
       id="path2" />
    <path
       d="m 0.79375004,290.51769 v 2.38125 H 1.0583334 v -2.11667 H 1.5875 v 1.5875 h 0.2645834 l -2.7e-6,-1.85208 z"
       fill="#0063b1"
       fill-opacity="0.978947"
       stroke-width="0.352777"
       id="path4" />
    <path
       d="M 0.52916683,293.03123 3.175,290.78227 l 2.6458334,2.24896 v 4.10104 H 0.52916671 Z"
       fill="#3a3a38"
       stroke-width="1.33333"
       id="path6" />
    <g
       fill-opacity="0.978947"
       id="g16">
      <path
         d="M 0.79375003,293.1194 3.175,291.04685 5.5562501,293.1194 v 3.74828 H 0.79375004 Z"
         fill="#fafafa"
         stroke-width="1.33333"
         id="path8" />
      <g
         fill="#1e8bcd"
         id="g14">
        <path
           d="m 3.175,294.48643 h 1.3229167 v 2.38125 H 3.175 Z"
           stroke-width="1.26773"
           id="path10" />
        <path
           d="m 1.5875029,294.48643 h 1.0583305 v 1.05833 H 1.5875029 Z"
           stroke-width="1.33333"
           id="path12" />
      </g>
    </g>
    <path
       d="M 16,4 2,17 3,18 16,6 29,18 30,17 Z"
       fill="#0063b1"
       stroke-width="3.77953"
       transform="matrix(0.26458333,0,0,0.26458333,-1.058333,289.45935)"
       id="path18" />
  </g>
</svg>
